<?xml version="1.0" encoding="utf-8"?>
<!-- Generator: Adobe Illustrator 18.0.0, SVG Export Plug-In . SVG Version: 6.00 Build 0)  -->
<!DOCTYPE svg PUBLIC "-//W3C//DTD SVG 1.1//EN" "http://www.w3.org/Graphics/SVG/1.1/DTD/svg11.dtd">
<svg version="1.1" id="Layer_1" xmlns="http://www.w3.org/2000/svg" xmlns:xlink="http://www.w3.org/1999/xlink" x="0px" y="0px"
	 width="280px" height="27px" viewBox="0 0 280 27" enable-background="new 0 0 280 27" xml:space="preserve">
<g>
	<polygon fill="#FFFFFF" points="57.7,6.9 57.9,6 57.3,5.4 55.6,6.4 54.4,6 53.8,4 52.9,4.1 53,5.1 52.8,5.3 52.2,4.4 52.4,3.6 
		52,2.2 50.7,1.1 49.8,1.1 49,0 48.3,0.4 49.3,1.5 49.3,1.9 52,6 51.9,7.3 51.5,8.8 50.4,9.6 50.4,10.2 52.1,11 52.5,11.7 
		51.5,13.6 51.8,14 52.4,14 52.7,14.4 53.5,13.9 54.8,11.8 55.5,10.2 55.3,9.8 55.7,8.9 56.4,8.9 56.5,9.3 57.1,9 57.1,8.1 
		57.6,7.8 	"/>
	<path fill="#FFFFFF" d="M43.9,4c0-0.5,0.2-0.9,0.6-0.9c0.4,0,0.6,0.3,0.6,0.9v3.3c0,0.5-0.2,0.9-0.6,0.9c-0.4,0-0.6-0.3-0.6-0.9V4z
		 M40.7,2.4v6.6l2.1,2h3.5l2.1-2V2.4l-2.1-2h-3.5L40.7,2.4z"/>
	<polygon fill="#FFFFFF" points="45.7,24.1 46.3,23.9 46.3,23.4 47,21.8 47.6,20.1 48.4,19.4 49.2,19.6 49.6,19.5 49.7,19.1 
		49.2,18.5 49.4,18.1 50.2,17.1 50.3,16.4 50.8,16.2 51.3,15 51.2,14.6 51.3,14.2 51.2,14 51.3,13.5 50.7,13.3 49.7,13.9 49.7,13.9 
		49.7,13.4 49.4,13.2 49.2,13.3 49.2,13.2 49.3,12.9 49.4,12.7 49.3,12.4 48.2,13.3 47.7,15 47,15.5 46.6,17.1 43.6,20 42.6,20.3 
		41.3,22.2 40.4,24.3 40.9,25 41.9,24.7 42.2,25.1 42.8,25.1 42.8,25.4 43.8,25.5 44.8,25 	"/>
	<path fill="#FFFFFF" d="M56.8,21.5c0,0.5-0.2,0.9-0.6,0.9c-0.4,0-0.6-0.3-0.6-0.9v-3.3c0-0.5,0.2-0.9,0.6-0.9
		c0.4,0,0.6,0.3,0.6,0.9V21.5z M60,23.2v-6.6l-2.1-2h-3.5l-2.1,2v6.6l2.1,2h3.5L60,23.2z"/>
	<polygon fill="#FFFFFF" points="42.2,25.6 41.9,25.7 42,26.2 41.4,26.9 41.6,27 42.8,26.7 43,26.2 42.8,26.1 	"/>
	<polygon fill="#FFFFFF" points="2.4,25.2 8,25.2 8,0.3 5.1,0.3 3.2,2.2 0,2.2 0,7.1 2.4,7.1 	"/>
	<path fill="#FFFFFF" d="M13.7,0.3l-3.5,3.5v17.9l3.5,3.5H20l3.5-3.5V3.8L20,0.3H13.7z M17.9,19.8c0,0.6-0.4,1-0.9,1h-0.4
		c-0.5,0-0.9-0.4-0.9-1v-14c0-0.6,0.4-1,0.9-1H17c0.5,0,0.9,0.4,0.9,1V19.8z"/>
	<path fill="#FFFFFF" d="M35.4,25.2l3.5-3.5V3.8l-3.5-3.5h-6.3l-3.5,3.5v17.9l3.5,3.5H35.4z M31.2,5.7c0-0.6,0.4-1,0.9-1h0.4
		c0.5,0,0.9,0.4,0.9,1v14c0,0.6-0.4,1-0.9,1h-0.4c-0.5,0-0.9-0.4-0.9-1V5.7z"/>
	<path fill="#FFFFFF" d="M66.4,0.3v24.9H72v-8.8h4.1l3.5-3.5V3.8l-3.5-3.5H66.4z M74,11.1c0,0.6-0.4,0.9-0.9,0.9H72V4.8h1.1
		c0.5,0,0.9,0.3,0.9,0.9V11.1z"/>
	<path fill="#FFFFFF" d="M81.4,0.3v21.4l3.5,3.5h6.3l3.5-3.5V0.3h-5.6v19.5c0,0.6-0.4,1-0.9,1h-0.4c-0.5,0-0.9-0.4-0.9-1V0.3H81.4z"
		/>
	<path fill="#FFFFFF" d="M110,3.8l-3.5-3.5h-9.7v24.9h5.6v-9.5h1.1c0.5,0,0.9,0.3,0.9,0.9v6.2l0.3,2.4h5.6l-0.3-2.7v-6.8l-2.5-2.4
		l2.5-2.4V3.8z M104.4,10c0,0.6-0.4,0.9-0.9,0.9h-1.1V4.8h1.1c0.5,0,0.9,0.3,0.9,0.9V10z"/>
	<polygon fill="#FFFFFF" points="112.2,25.2 122.7,25.2 122.7,20.4 117.7,20.4 117.7,15 122.3,15 122.3,10.2 117.7,10.2 117.7,5.1 
		122.7,5.1 122.7,0.3 112.2,0.3 	"/>
	<polygon fill="#FFFFFF" points="136.7,10.4 136.4,10.4 134.1,0.3 128.8,0.3 128.8,25.2 134,25.2 134,14.5 134.3,14.5 137.1,25.2 
		141.9,25.2 141.9,0.3 136.7,0.3 	"/>
	<polygon fill="#FFFFFF" points="144,25.2 154.6,25.2 154.6,20.4 149.6,20.4 149.6,15 154.2,15 154.2,10.2 149.6,10.2 149.6,5.1 
		154.6,5.1 154.6,0.3 144,0.3 	"/>
	<polygon fill="#FFFFFF" points="182,5.1 187.3,5.1 182,20.8 182,25.2 193.4,25.2 193.4,20.4 188.2,20.4 193.4,4.8 193.4,0.3 
		182,0.3 	"/>
	<polygon fill="#FFFFFF" points="195.2,25.2 205.7,25.2 205.7,20.4 200.8,20.4 200.8,15 205.3,15 205.3,10.2 200.8,10.2 200.8,5.1 
		205.7,5.1 205.7,0.3 195.2,0.3 	"/>
	<polygon fill="#FFFFFF" points="223.6,0.3 223.6,25.2 233.6,25.2 233.6,20.4 229.1,20.4 229.1,0.3 	"/>
	<polygon fill="#FFFFFF" points="259.4,10.4 259.1,10.4 256.8,0.3 251.5,0.3 251.5,25.2 256.7,25.2 256.7,14.5 257,14.5 259.8,25.2 
		264.6,25.2 264.6,0.3 259.4,0.3 	"/>
	<path fill="#FFFFFF" d="M266.7,25.2h9.7l3.5-3.5V3.8l-3.5-3.5h-9.7V25.2z M272.3,4.8h1.2c0.5,0,0.9,0.3,0.9,0.9v14.2
		c0,0.6-0.4,0.9-0.9,0.9h-1.2V4.8z"/>
	<polygon fill="#FFFFFF" points="169.6,11.8 169.3,11.8 168.1,0.3 164.1,0.3 162.9,11.8 162.6,11.8 161.4,0.3 156.1,0.3 159.3,25.2 
		164.3,25.2 165.8,14.4 166,14.4 167.4,25.2 172.5,25.2 175.7,0.3 170.8,0.3 	"/>
	<path fill="#FFFFFF" d="M211,0.3l-4,24.9h5.4l0.5-4h3.3l0.5,4h5.6l-4-24.9H211z M213.4,16.7l1-8.1h0.2l1,8.1H213.4z"/>
	<path fill="#FFFFFF" d="M238.9,0.3l-4,24.9h5.4l0.5-4h3.3l0.5,4h5.6l-4-24.9H238.9z M241.3,16.7l1-8.1h0.2l1,8.1H241.3z"/>
</g>
</svg>
